<?xml version="1.0" encoding="UTF-8"?>
<svg xmlns="http://www.w3.org/2000/svg" version="1.1" viewBox="0 0 34 34">
  <defs>
    <style>
      .cls-1 {
        fill: #d7d7d7;
      }
    </style>
  </defs>
  <!-- Generator: Adobe Illustrator 28.7.10, SVG Export Plug-In . SVG Version: 1.2.0 Build 236)  -->
  <g>
    <g id="Layer_2">
      <g>
        <path class="cls-1" d="M6.8,25.9c0,.7.6,1.3,1.3,1.3h17.8c.7,0,1.3-.6,1.3-1.3v-15.2H6.8v15.2ZM10.7,15.4h12.7c.6,0,1,.5,1,1s-.5,1-1,1h-12.7c-.6,0-1-.5-1-1s.5-1,1-1ZM10.7,19.7h12.7c.6,0,1,.5,1,1s-.5,1-1,1h-12.7c-.6,0-1-.5-1-1s.5-1,1-1Z"/>
        <path class="cls-1" d="M30.3,0H3.8C1.7,0,0,1.7,0,3.7v26.5c0,2.1,1.7,3.8,3.8,3.8h26.5c2.1,0,3.8-1.7,3.8-3.8V3.7C34,1.7,32.4,0,30.3,0ZM29.8,8.1v17.8c0,2.1-1.7,3.9-3.9,3.9H8.1c-2.1,0-3.9-1.7-3.9-3.9V6.8c0-1.4,1.2-2.6,2.6-2.6h20.4c1.4,0,2.6,1.2,2.6,2.6v1.3Z"/>
      </g>
    </g>
  </g>
</svg>